<svg width="150" height="65" viewBox="0 0 150 65" fill="none" xmlns="http://www.w3.org/2000/svg">
<path d="M23.36 40.44L6.96 32.64V29.92L23.36 22.12V25.36L9.12 31.88V30.68L23.36 37.2V40.44ZM124.294 40.44V37.2L138.534 30.68V31.88L124.294 25.36V22.12L140.694 29.92V32.64L124.294 40.44Z" fill="#C6C6C6"/>
<path d="M52.392 56.768C49.0213 56.768 45.928 56.1707 43.112 54.976C40.296 53.7387 37.8427 52.032 35.752 49.856C33.704 47.6373 32.104 45.0347 30.952 42.048C29.8 39.0613 29.224 35.776 29.224 32.192C29.224 28.608 29.8 25.3227 30.952 22.336C32.104 19.3493 33.704 16.7467 35.752 14.528C37.8427 12.3093 40.296 10.6027 43.112 9.408C45.928 8.17066 49.0213 7.552 52.392 7.552C55.6347 7.552 58.536 8.128 61.096 9.28C63.6987 10.432 65.8747 11.9253 67.624 13.76C69.416 15.552 70.696 17.4507 71.464 19.456L66.664 21.568C65.4693 18.7947 63.6347 16.576 61.16 14.912C58.728 13.2053 55.8053 12.352 52.392 12.352C48.8933 12.352 45.7787 13.184 43.048 14.848C40.3173 16.512 38.184 18.8373 36.648 21.824C35.112 24.768 34.344 28.224 34.344 32.192C34.344 36.1173 35.112 39.5733 36.648 42.56C38.184 45.5467 40.3173 47.872 43.048 49.536C45.7787 51.1573 48.8933 51.968 52.392 51.968C55.8053 51.968 58.728 51.136 61.16 49.472C63.6347 47.808 65.4693 45.5893 66.664 42.816L71.464 44.928C70.696 46.8907 69.416 48.7893 67.624 50.624C65.8747 52.416 63.6987 53.888 61.096 55.04C58.536 56.192 55.6347 56.768 52.392 56.768ZM80.632 56V8.32H100.664C103.352 8.32 105.677 8.832 107.64 9.856C109.645 10.8373 111.181 12.224 112.248 14.016C113.357 15.808 113.912 17.8987 113.912 20.288C113.912 22.7627 113.293 24.96 112.056 26.88C110.861 28.7573 109.133 30.1867 106.872 31.168L106.808 29.632C108.685 30.3147 110.285 31.2747 111.608 32.512C112.973 33.7493 114.019 35.2 114.744 36.864C115.469 38.4853 115.832 40.2347 115.832 42.112C115.832 46.3787 114.467 49.7707 111.736 52.288C109.048 54.7627 105.379 56 100.728 56H80.632ZM85.752 51.2H100.728C103.757 51.2 106.168 50.4107 107.96 48.832C109.795 47.2107 110.712 44.992 110.712 42.176C110.712 39.4027 109.795 37.2053 107.96 35.584C106.168 33.92 103.757 33.088 100.728 33.088H85.752V51.2ZM85.752 28.48H100.28C102.84 28.48 104.888 27.7333 106.424 26.24C108.003 24.7467 108.792 22.8267 108.792 20.48C108.792 18.0907 108.003 16.2773 106.424 15.04C104.888 13.76 102.84 13.12 100.28 13.12H85.752V28.48Z" fill="#595959"/>
</svg>
